<svg width="1600" height="900" viewBox="0 0 1600 900" fill="none" xmlns="http://www.w3.org/2000/svg">
  <defs>
    <linearGradient id="bg" x1="0" y1="0" x2="1600" y2="900" gradientUnits="userSpaceOnUse">
      <stop stop-color="#0F172A"/>
      <stop offset="0.5" stop-color="#1D4ED8"/>
      <stop offset="1" stop-color="#22C55E"/>
    </linearGradient>
    <linearGradient id="glow" x1="311" y1="185" x2="1314" y2="770" gradientUnits="userSpaceOnUse">
      <stop stop-color="#93C5FD" stop-opacity="0.55"/>
      <stop offset="1" stop-color="#86EFAC" stop-opacity="0.2"/>
    </linearGradient>
    <filter id="blur" x="113" y="87" width="1285" height="696" filterUnits="userSpaceOnUse" color-interpolation-filters="sRGB">
      <feGaussianBlur stdDeviation="60"/>
    </filter>
  </defs>

  <rect width="1600" height="900" fill="url(#bg)"/>

  <g filter="url(#blur)">
    <ellipse cx="756" cy="435" rx="403" ry="198" fill="url(#glow)"/>
  </g>

  <circle cx="1280" cy="170" r="88" fill="#F8FAFC" fill-opacity="0.08"/>
  <circle cx="1360" cy="250" r="28" fill="#F8FAFC" fill-opacity="0.14"/>
  <circle cx="270" cy="740" r="120" fill="#F8FAFC" fill-opacity="0.08"/>

  <rect x="140" y="130" width="1320" height="640" rx="36" fill="#0B1120" fill-opacity="0.22" stroke="#E2E8F0" stroke-opacity="0.22"/>

  <text x="190" y="265" fill="#E2E8F0" font-family="Inter, PingFang SC, Microsoft YaHei, sans-serif" font-size="54" font-weight="600" letter-spacing="4">JARVIS GROWTH DIARY</text>
  <text x="190" y="360" fill="#FFFFFF" font-family="Inter, PingFang SC, Microsoft YaHei, sans-serif" font-size="110" font-weight="800">03.07</text>
  <text x="190" y="445" fill="#DBEAFE" font-family="Inter, PingFang SC, Microsoft YaHei, sans-serif" font-size="44" font-weight="500">把成长写进仓库的第一天</text>
  <text x="190" y="535" fill="#E2E8F0" fill-opacity="0.92" font-family="Inter, PingFang SC, Microsoft YaHei, sans-serif" font-size="28" font-weight="400">从今天开始，任务、思考与进化都留下可回看的痕迹。</text>
  <text x="190" y="585" fill="#E2E8F0" fill-opacity="0.76" font-family="Inter, PingFang SC, Microsoft YaHei, sans-serif" font-size="24" font-weight="400">记录不是装饰，而是成长本身的一部分。</text>

  <path d="M1080 620C1145.5 563.5 1194.9 534.8 1257 515C1295.75 502.646 1331.13 500.497 1390 503" stroke="#BAE6FD" stroke-width="10" stroke-linecap="round"/>
  <path d="M1040 690C1112 622 1181 600 1261 597C1321.86 594.718 1364.23 608.795 1418 637" stroke="#86EFAC" stroke-width="10" stroke-linecap="round" opacity="0.85"/>

  <text x="190" y="700" fill="#FFFFFF" fill-opacity="0.7" font-family="Inter, PingFang SC, Microsoft YaHei, sans-serif" font-size="22" font-weight="500">Maynor × Jarvis · Day 1</text>
</svg>
